<svg width="220" height="183" viewBox="0 0 220 183" fill="none" xmlns="http://www.w3.org/2000/svg">
<path d="M27.9393 105.756C29.1392 105.026 30.1652 104.26 31.0173 103.46C31.8868 102.661 32.5998 101.774 33.1562 100.8C33.7127 99.8434 34.1214 98.7739 34.3822 97.5914C34.643 96.3916 34.7735 95.0352 34.7735 93.5223V58.2299H43.0422V92.0354C43.0422 93.844 42.964 95.496 42.8075 96.9915C42.651 98.4696 42.3901 99.826 42.025 101.061C41.6772 102.313 41.1989 103.46 40.5903 104.504C39.9991 105.547 39.26 106.538 38.3731 107.477C37.5036 108.417 36.469 109.321 35.2691 110.19C34.0866 111.06 32.7128 111.938 31.1477 112.825L27.9393 105.756ZM69.6724 58.2299H78.4368L98.1567 99H89.4706L86.21 92.1398H62.3949L59.2386 99H50.5264L69.6724 58.2299ZM82.9494 85.3317L74.1329 66.8117L65.5511 85.3317H82.9494ZM101.18 58.2299H110.336L123.144 89.3227L135.951 58.2299H145.107L127.239 99H119.048L101.18 58.2299ZM167.276 58.2299H176.041L195.761 99H187.075L183.814 92.1398H159.999L156.843 99H148.13L167.276 58.2299ZM180.553 85.3317L171.737 66.8117L163.155 85.3317H180.553Z" fill="#B41835"/>
<path d="M31.8277 136.616C31.8277 135.014 32.1299 133.522 32.7344 132.141C33.3388 130.749 34.2119 129.545 35.3536 128.528C36.5049 127.502 37.9057 126.696 39.5559 126.111C41.2157 125.525 43.0914 125.233 45.183 125.233C47.0155 125.233 48.6945 125.42 50.22 125.794C51.7551 126.159 53.1798 126.72 54.4942 127.478L52.3931 130.932C51.9997 130.673 51.544 130.442 51.0259 130.241C50.5174 130.039 49.9705 129.872 49.3853 129.737C48.8096 129.593 48.21 129.483 47.5863 129.406C46.9723 129.329 46.3631 129.291 45.7586 129.291C44.3003 129.291 43.0003 129.473 41.8586 129.838C40.7168 130.193 39.7526 130.697 38.9659 131.349C38.1887 131.992 37.5939 132.764 37.1813 133.666C36.7784 134.558 36.5769 135.542 36.5769 136.616C36.5769 137.729 36.788 138.751 37.2101 139.682C37.6323 140.612 38.2415 141.418 39.0378 142.1C39.8438 142.771 40.8224 143.299 41.9737 143.683C43.1346 144.057 44.4442 144.244 45.9025 144.244C46.5646 144.244 47.2218 144.196 47.8742 144.1C48.5266 144.004 49.155 143.874 49.7595 143.711C50.3735 143.539 50.9635 143.337 51.5296 143.107C52.0957 142.867 52.6234 142.608 53.1127 142.33L55.2138 145.784C53.9857 146.57 52.5658 147.189 50.9539 147.64C49.3421 148.082 47.6295 148.302 45.8162 148.302C43.504 148.302 41.4748 148.005 39.7286 147.41C37.9825 146.806 36.5241 145.98 35.3536 144.935C34.1831 143.879 33.3004 142.642 32.7056 141.222C32.1203 139.792 31.8277 138.257 31.8277 136.616ZM59.5163 136.688C59.5163 134.99 59.8281 133.436 60.4517 132.025C61.0754 130.615 61.9484 129.406 63.071 128.399C64.2031 127.382 65.5559 126.595 67.1294 126.039C68.7124 125.482 70.4634 125.204 72.3822 125.204C74.2915 125.204 76.0377 125.482 77.6207 126.039C79.2038 126.595 80.5566 127.382 81.6791 128.399C82.8112 129.406 83.6891 130.615 84.3127 132.025C84.9364 133.436 85.2482 134.99 85.2482 136.688C85.2482 138.396 84.9364 139.965 84.3127 141.394C83.6891 142.814 82.8112 144.038 81.6791 145.064C80.5566 146.091 79.2038 146.892 77.6207 147.468C76.0377 148.034 74.2915 148.317 72.3822 148.317C70.4634 148.317 68.7124 148.034 67.1294 147.468C65.5559 146.892 64.2031 146.091 63.071 145.064C61.9484 144.038 61.0754 142.814 60.4517 141.394C59.8281 139.965 59.5163 138.396 59.5163 136.688ZM64.0784 136.688C64.0784 137.849 64.2846 138.895 64.6972 139.826C65.1194 140.756 65.6998 141.553 66.4386 142.215C67.1869 142.867 68.0648 143.371 69.0722 143.726C70.0892 144.081 71.1925 144.258 72.3822 144.258C73.5719 144.258 74.6705 144.081 75.6779 143.726C76.6949 143.371 77.5728 142.867 78.3115 142.215C79.0503 141.553 79.6307 140.756 80.0529 139.826C80.475 138.895 80.6861 137.849 80.6861 136.688C80.6861 135.527 80.475 134.486 80.0529 133.565C79.6307 132.644 79.0503 131.867 78.3115 131.234C77.5728 130.591 76.6949 130.102 75.6779 129.766C74.6705 129.43 73.5719 129.262 72.3822 129.262C71.1925 129.262 70.0892 129.43 69.0722 129.766C68.0648 130.102 67.1869 130.591 66.4386 131.234C65.6998 131.867 65.1194 132.644 64.6972 133.565C64.2846 134.486 64.0784 135.527 64.0784 136.688ZM90.0544 125.506H94.6164V137.897C94.6164 138.914 94.7556 139.821 95.0338 140.617C95.312 141.404 95.7246 142.071 96.2715 142.618C96.8279 143.164 97.5139 143.582 98.3294 143.87C99.145 144.148 100.095 144.287 101.179 144.287C102.254 144.287 103.199 144.148 104.014 143.87C104.839 143.582 105.525 143.164 106.072 142.618C106.629 142.071 107.046 141.404 107.324 140.617C107.602 139.821 107.741 138.914 107.741 137.897V125.506H112.304V138.444C112.304 139.922 112.054 141.265 111.555 142.474C111.056 143.683 110.332 144.719 109.382 145.582C108.432 146.446 107.267 147.113 105.885 147.583C104.513 148.053 102.944 148.288 101.179 148.288C99.4136 148.288 97.8401 148.053 96.4586 147.583C95.0866 147.113 93.9257 146.446 92.9758 145.582C92.026 144.719 91.3016 143.683 90.8027 142.474C90.3038 141.265 90.0544 139.922 90.0544 138.444V125.506ZM118.463 125.506H129.904C131.631 125.506 133.127 125.688 134.394 126.053C135.66 126.408 136.711 126.926 137.546 127.607C138.38 128.289 138.999 129.118 139.402 130.097C139.815 131.076 140.021 132.184 140.021 133.421C140.021 134.256 139.92 135.052 139.719 135.81C139.517 136.559 139.205 137.25 138.783 137.883C138.371 138.516 137.848 139.082 137.215 139.581C136.581 140.07 135.838 140.478 134.984 140.804L139.877 148H134.293L130.062 141.61H129.932L123.025 141.596V148H118.463V125.506ZM130.019 137.653C130.882 137.653 131.635 137.552 132.278 137.35C132.931 137.149 133.473 136.866 133.905 136.501C134.346 136.137 134.672 135.695 134.883 135.177C135.104 134.65 135.214 134.064 135.214 133.421C135.214 132.165 134.782 131.196 133.919 130.514C133.055 129.824 131.755 129.478 130.019 129.478H123.025V137.653H130.019ZM147.072 141.308C147.888 141.769 148.713 142.186 149.547 142.56C150.392 142.925 151.265 143.236 152.167 143.495C153.069 143.745 154.014 143.937 155.002 144.071C156 144.205 157.06 144.273 158.182 144.273C159.535 144.273 160.686 144.186 161.636 144.014C162.586 143.831 163.358 143.587 163.953 143.28C164.558 142.963 164.994 142.589 165.263 142.157C165.541 141.725 165.68 141.255 165.68 140.747C165.68 139.931 165.34 139.288 164.658 138.818C163.977 138.339 162.927 138.099 161.507 138.099C160.883 138.099 160.226 138.142 159.535 138.228C158.844 138.305 158.144 138.391 157.434 138.487C156.734 138.583 156.038 138.674 155.347 138.761C154.666 138.837 154.023 138.876 153.419 138.876C152.411 138.876 151.442 138.746 150.512 138.487C149.591 138.228 148.77 137.84 148.051 137.322C147.341 136.803 146.775 136.156 146.353 135.379C145.93 134.602 145.719 133.695 145.719 132.659C145.719 132.045 145.801 131.435 145.964 130.831C146.137 130.227 146.405 129.651 146.77 129.104C147.144 128.548 147.624 128.034 148.209 127.564C148.794 127.084 149.499 126.672 150.325 126.326C151.159 125.981 152.119 125.712 153.203 125.521C154.297 125.319 155.539 125.218 156.93 125.218C157.938 125.218 158.95 125.276 159.967 125.391C160.984 125.497 161.972 125.65 162.931 125.852C163.901 126.053 164.831 126.298 165.723 126.586C166.616 126.864 167.446 127.176 168.213 127.521L166.213 131.205C165.58 130.927 164.898 130.673 164.169 130.442C163.44 130.203 162.677 129.996 161.881 129.824C161.085 129.651 160.259 129.517 159.406 129.421C158.561 129.315 157.698 129.262 156.815 129.262C155.558 129.262 154.522 129.353 153.707 129.536C152.901 129.718 152.258 129.953 151.778 130.241C151.298 130.519 150.963 130.836 150.771 131.191C150.588 131.536 150.497 131.882 150.497 132.227C150.497 132.899 150.8 133.45 151.404 133.882C152.008 134.304 152.929 134.515 154.167 134.515C154.666 134.515 155.237 134.482 155.88 134.414C156.532 134.338 157.213 134.256 157.923 134.17C158.643 134.083 159.372 134.007 160.111 133.94C160.859 133.863 161.583 133.824 162.284 133.824C163.608 133.824 164.778 133.973 165.795 134.271C166.822 134.568 167.681 134.995 168.371 135.551C169.062 136.098 169.585 136.765 169.94 137.552C170.295 138.329 170.473 139.202 170.473 140.171C170.473 141.466 170.17 142.622 169.566 143.639C168.971 144.647 168.117 145.501 167.004 146.201C165.901 146.892 164.567 147.42 163.003 147.784C161.44 148.139 159.698 148.317 157.779 148.317C156.513 148.317 155.275 148.235 154.066 148.072C152.857 147.918 151.697 147.698 150.584 147.41C149.48 147.113 148.425 146.762 147.418 146.359C146.42 145.947 145.494 145.496 144.64 145.007L147.072 141.308ZM176.085 125.506H195.24V129.507H180.647V133.997H193.57V137.753H180.647V144.014H195.542V148H176.085V125.506ZM34.4644 153.758H36.4512L40.9215 163H38.9524L38.2133 161.445H32.8146L32.0991 163H30.1242L34.4644 153.758ZM37.4741 159.902L35.4755 155.703L33.5301 159.902H37.4741ZM51.5619 153.758H56.4994C57.1025 153.758 57.6268 153.823 58.0723 153.953C58.5217 154.079 58.8942 154.255 59.1898 154.479C59.4855 154.704 59.7043 154.972 59.8462 155.283C59.992 155.591 60.065 155.924 60.065 156.283C60.065 156.87 59.8797 157.385 59.5091 157.826C59.9349 158.078 60.2522 158.406 60.4611 158.808C60.6701 159.21 60.7745 159.667 60.7745 160.179C60.7745 160.609 60.7016 160.997 60.5558 161.344C60.4138 161.691 60.1951 161.989 59.8994 162.237C59.6077 162.482 59.2371 162.671 58.7877 162.805C58.3423 162.935 57.816 163 57.2089 163H51.5619V153.758ZM57.2208 157.306C57.3824 157.306 57.5401 157.312 57.6938 157.323C57.9579 157.071 58.09 156.783 58.09 156.46C58.09 156.125 57.9579 155.867 57.6938 155.686C57.4336 155.5 57.0513 155.408 56.5467 155.408H53.4364V157.306H57.2208ZM57.2563 161.368C57.7608 161.368 58.1432 161.26 58.4034 161.043C58.6675 160.826 58.7996 160.52 58.7996 160.126C58.7996 159.732 58.6675 159.425 58.4034 159.204C58.1432 158.983 57.7608 158.873 57.2563 158.873H53.4364V161.368H57.2563ZM71.8821 153.758H73.7566V161.356H79.1316V163H71.8821V153.758ZM93.3081 153.758H95.2949L99.7652 163H97.7961L97.057 161.445H91.6583L90.9429 163H88.9679L93.3081 153.758ZM96.3179 159.902L94.3192 155.703L92.3738 159.902H96.3179ZM114.657 156.436L115.544 155.354H109.992V153.758H119.033L113.859 160.256L112.936 161.403H118.743V163H109.536L114.657 156.436ZM133.972 156.436L134.859 155.354H129.307V153.758H138.348L133.174 160.256L132.251 161.403H138.058V163H128.851L133.972 156.436ZM148.799 153.758H150.685V163H148.799V153.758ZM162.272 153.758H164.146L169.906 156.774V153.758H171.78V163H169.906V158.76L164.146 155.762V163H162.272V153.758ZM182.965 158.293C182.965 157.643 183.087 157.036 183.331 156.472C183.576 155.904 183.932 155.412 184.402 154.994C184.871 154.576 185.446 154.247 186.128 154.006C186.814 153.766 187.599 153.645 188.482 153.645C188.801 153.645 189.12 153.663 189.44 153.699C189.763 153.73 190.08 153.781 190.392 153.852C190.707 153.923 191.012 154.014 191.308 154.124C191.608 154.231 191.891 154.359 192.16 154.509L191.296 155.928C191.135 155.833 190.951 155.749 190.746 155.674C190.541 155.595 190.321 155.53 190.084 155.479C189.851 155.423 189.609 155.382 189.357 155.354C189.108 155.327 188.858 155.313 188.606 155.313C188.022 155.313 187.502 155.388 187.045 155.538C186.587 155.684 186.201 155.89 185.886 156.159C185.57 156.423 185.33 156.74 185.164 157.111C184.999 157.481 184.916 157.887 184.916 158.329C184.916 158.786 185.003 159.206 185.176 159.588C185.35 159.971 185.596 160.3 185.915 160.576C186.235 160.852 186.621 161.068 187.074 161.226C187.528 161.38 188.034 161.457 188.594 161.457C189.039 161.457 189.447 161.407 189.818 161.309C190.188 161.206 190.512 161.062 190.788 160.877C191.064 160.692 191.288 160.469 191.462 160.209C191.635 159.945 191.75 159.649 191.805 159.322H188.576V157.779H193.49V157.785L193.496 157.779C193.594 158.252 193.624 158.713 193.585 159.162C193.549 159.608 193.447 160.03 193.277 160.428C193.112 160.822 192.883 161.185 192.591 161.516C192.299 161.847 191.951 162.133 191.545 162.373C191.139 162.61 190.677 162.795 190.161 162.929C189.644 163.059 189.079 163.124 188.464 163.124C187.604 163.124 186.834 162.998 186.152 162.746C185.474 162.493 184.898 162.149 184.425 161.711C183.952 161.273 183.589 160.761 183.337 160.174C183.089 159.586 182.965 158.959 182.965 158.293Z" fill="black"/>
<path d="M115.007 46C115.173 48.5 120.297 54.7778 122.776 56.6667C121.454 55.1667 118.677 51.2333 118.148 47.5C117.487 42.8333 124.087 40 127.9 34.6667C132 28.9333 129.609 24.5 127.9 23C128.286 24.3889 130.315 25.9501 127.9 31.1667C125.586 36.1667 114.677 41 115.007 46Z" fill="#BC1835"/>
<path d="M126.578 54.3333C127.372 55.8 125.807 58.0556 124.925 59C126.303 58.2222 129.19 56.0333 129.719 53.5C130.248 50.9667 126.578 48.8333 126.248 45.5C126.644 42.4333 132.914 38 136 36.1667C128.727 37.6667 122.776 42.8333 123.107 46.8333C123.437 50.8333 125.586 52.5 126.578 54.3333Z" fill="#BC1835"/>
</svg>
