<svg width="62" height="53" viewBox="0 0 62 53" fill="none" xmlns="http://www.w3.org/2000/svg">
<path d="M0.818904 25.816L16.5753 30.3771C16.8458 30.4554 17.1368 30.416 17.3768 30.2686L43.3697 14.3015C44.3991 13.6691 45.4589 15.0654 44.573 15.8868L24.7774 34.2427C24.5987 34.4085 24.4866 34.6339 24.4624 34.8765L23.2561 46.9392C23.1653 47.8471 24.238 48.3923 24.9179 47.784L31.9034 41.5338C32.2521 41.2218 32.7706 41.1933 33.1514 41.4653L48.7611 52.615C49.3465 53.0332 50.1688 52.7149 50.32 52.0115L61.1079 1.82414C61.2756 1.04382 60.5066 0.391117 59.7639 0.683504L0.730628 23.9249C-0.157309 24.2745 -0.0977381 25.5507 0.818904 25.816Z" fill="#AF1734"/>
</svg>
