<svg width="44" height="36" viewBox="0 0 44 36" fill="none" xmlns="http://www.w3.org/2000/svg">
<path d="M1.05 17.6425L11.3661 20.4164C11.6209 20.4849 11.8923 20.45 12.1214 20.3193L28.1227 11.1889C29.1744 10.5888 30.1883 12.0249 29.2709 12.8151L17.4962 22.9571C17.3039 23.1228 17.1817 23.3554 17.1546 23.6078L16.3743 30.8553C16.2782 31.7484 17.3169 32.3055 18.0078 31.7314L22.42 28.0643C22.7596 27.7821 23.2441 27.756 23.612 28.0001L34.4674 35.2025C35.049 35.5885 35.8371 35.2748 35.9945 34.5947L43.5838 1.79874C43.7628 1.02501 43.0119 0.361351 42.266 0.634116L0.966202 15.7377C0.0491924 16.073 0.107082 17.389 1.05 17.6425Z" fill="#AF1734"/>
</svg>
