<svg width="56" height="32" viewBox="0 0 56 32" fill="#BC1835" xmlns="http://www.w3.org/2000/svg">
<path fill-rule="evenodd" clip-rule="evenodd" d="M54.4955 2.59678C54.8825 1.3864 54.4955 0.497009 52.654 0.497009H46.5646C45.0162 0.497009 44.3024 1.26531 43.9153 2.11253C43.9153 2.11253 40.8186 9.19316 36.4317 13.7925C35.0124 15.1238 34.3672 15.5475 33.5931 15.5475C33.206 15.5475 32.6457 15.1238 32.6457 13.9136V2.59678C32.6457 1.14433 32.1964 0.497009 30.906 0.497009H21.3368C20.3692 0.497009 19.7873 1.17113 19.7873 1.81001C19.7873 3.18691 21.9807 3.50444 22.2068 7.37764V15.7896C22.2068 17.6339 21.8517 17.9683 21.0775 17.9683C19.0132 17.9683 13.9916 10.856 11.0134 2.71777C10.4297 1.13597 9.8443 0.497009 8.288 0.497009H2.19855C0.458705 0.497009 0.110718 1.26531 0.110718 2.11253C0.110718 3.62552 2.17518 11.1298 9.72318 21.0546C14.7552 27.8325 21.8449 31.5067 28.2962 31.5067C32.167 31.5067 32.6458 30.6906 32.6458 29.285V24.1623C32.6458 22.5302 33.0125 22.2045 34.2383 22.2045C35.1414 22.2045 36.6898 22.6281 40.3026 25.896C44.4314 29.7691 45.1121 31.5067 47.4345 31.5067H53.5239C55.2638 31.5067 56.1337 30.6906 55.6319 29.0802C55.0827 27.4752 53.1114 25.1465 50.4957 22.386C49.0763 20.8126 46.9474 19.1181 46.3022 18.2707C45.3991 17.1815 45.6571 16.6973 46.3022 15.7291C46.3022 15.7291 53.7214 5.92519 54.4955 2.59678Z" fill="#BC1835"/>
</svg>
